<svg width="1068" height="352" viewBox="0 0 1068 352" fill="none" xmlns="http://www.w3.org/2000/svg">
    <path d="M16 318.376C43.3095 302.397 103.302 264.898 124.798 242.733" stroke="#065774" stroke-width="31.7143" stroke-linecap="round"/>
    <path d="M161.798 198.755C179.857 179.551 217.455 132.578 225.226 63.3022C231.393 8.32936 175.855 -1.05784 157.833 47.47C143.298 86.6107 136.25 209.897 127.881 268.681" stroke="#065774" stroke-width="31.7143" stroke-linecap="round"/>
    <path d="M114.226 334.648C119.365 300.491 133.607 231.739 157.393 203.593C183.532 172.662 234.458 165.091 240.643 216.346C245.048 252.848 220.381 307.381 244.607 325.852C268.833 344.323 329.619 328.491 355.167 311.339" stroke="#065774" stroke-width="31.7143" stroke-linecap="round"/>
    <path d="M359.131 307.709C384.238 295.834 419.091 269.755 430.488 229.734C445.188 178.116 388.152 155.667 355.167 193.478C330.059 222.258 325.215 282.147 360.453 308.736" stroke="#065774" stroke-width="31.7143" stroke-linecap="round"/>
    <path d="M351.202 299.905C374.548 331.13 453.657 358.572 523.429 285.393" stroke="#065774" stroke-width="31.7143" stroke-linecap="round"/>
    <path d="M535.762 272.199C555.437 247.425 597.869 190.136 611.964 139.824C629.583 76.9355 633.107 32.5175 609.321 21.083C582.893 8.3781 550.298 43.7064 535.762 116.27C525.523 167.387 523.429 194.357 523.429 233.058" stroke="#065774" stroke-width="31.7143" stroke-linecap="round"/>
    <path d="M523.429 234.817C522.694 267.361 532.238 334.56 588.619 335.967C654.25 337.606 700.353 276.597 720.762 246.252" stroke="#065774" stroke-width="31.7143" stroke-linecap="round"/>
    <path d="M722.084 244.053C739.703 216.786 769.796 156.687 782.429 106.401C796.964 48.5437 789.217 28.3752 769.214 21.5226C744.107 12.9213 715.917 47.0301 702.262 106.401C689.798 160.595 676.715 232.179 692.572 277.916" stroke="#065774" stroke-width="31.7143" stroke-linecap="round"/>
    <path d="M686.845 251.724C689.929 288.666 718.504 334.047 754.238 335.528C801.369 337.482 834.845 301.665 856.429 235.258" stroke="#065774" stroke-width="31.7143" stroke-linecap="round"/>
    <path d="M856.869 235.257C845.857 282.314 856.163 337.551 911.486 335.088C966.81 332.625 981.816 277.769 982.403 250.649C984.899 224.702 975.884 175.007 923.379 175.007" stroke="#065774" stroke-width="31.7143" stroke-linecap="round"/>
    <path d="M857.75 230.42C863.036 211.949 882.945 175.007 920.298 175.007C966.988 175.007 963.464 197.436 996.94 196.556C1023.72 195.853 1044.81 177.499 1052 168.41" stroke="#065774" stroke-width="31.7143" stroke-linecap="round"/>
</svg>
