<svg width="400" height="400" viewBox="0 0 400 400" fill="none" xmlns="http://www.w3.org/2000/svg">
    <path d="M86.7053 47.6939C132.564 82.1033 181.891 151.871 200.001 189.313C218.113 151.874 267.437 82.1026 313.297 47.6939C346.387 22.8655 400 3.6547 400 64.7845C400 76.993 392.997 167.342 388.889 182.01C374.611 233.005 322.583 246.012 276.303 238.14C357.2 251.9 377.779 297.481 333.336 343.061C248.929 429.627 212.019 321.341 202.557 293.595C200.823 288.508 200.012 286.128 200 288.152C199.988 286.128 199.177 288.508 197.443 293.595C187.985 321.341 151.076 429.63 66.6644 343.061C22.2206 297.481 42.7991 251.898 123.697 238.14C77.4154 246.012 25.3867 233.005 11.111 182.01C7.00327 167.341 0 76.9916 0 64.7845C0 3.6547 53.6149 22.8655 86.7029 47.6939H86.7053Z" fill="#FFFF00"/>
</svg>
