<?xml version="1.0" encoding="utf-8"?>
<!-- Generator: Adobe Illustrator 21.1.0, SVG Export Plug-In . SVG Version: 6.00 Build 0)  -->
<svg version="1.1" id="Layer_1" xmlns="http://www.w3.org/2000/svg" xmlns:xlink="http://www.w3.org/1999/xlink" x="0px" y="0px"
	 viewBox="0 0 400 400" style="enable-background:new 0 0 400 400;" xml:space="preserve">
<style type="text/css">
	.st0{fill:#FFFF00;}
</style>
<path class="st0" d="M346.1,0H53.9C24.2,0,0,24.2,0,53.9v292.2C0,375.8,24.2,400,53.9,400H198l0.3-143h-37.2c-4.8,0-8.7-3.9-8.8-8.7
	l-0.2-46.1c0-4.9,3.9-8.8,8.8-8.8H198v-44.5c0-51.7,31.5-79.8,77.6-79.8h37.8c4.8,0,8.8,3.9,8.8,8.8v38.8c0,4.8-3.9,8.8-8.8,8.8
	h-23.2c-25,0-29.9,11.9-29.9,29.4v38.6h55.1c5.3,0,9.3,4.6,8.7,9.8l-5.5,46.1c-0.5,4.4-4.3,7.7-8.7,7.7h-49.4l-0.3,143h85.7
	c29.7,0,53.9-24.2,53.9-53.9V53.9C400,24.2,375.8,0,346.1,0z"/>
</svg>
