<svg width="400" height="400" viewBox="0 0 400 400" fill="none" xmlns="http://www.w3.org/2000/svg">
	<g clip-path="url(#facebook)">
		<path d="M346.1 0H53.9C24.2 0 0 24.2 0 53.9V346.1C0 375.8 24.2 400 53.9 400H198L198.3 257H161.1C156.3 257 152.4 253.1 152.3 248.3L152.1 202.2C152.1 197.3 156 193.4 160.9 193.4H198V148.9C198 97.2 229.5 69.1 275.6 69.1H313.4C318.2 69.1 322.2 73 322.2 77.9V116.7C322.2 121.5 318.3 125.5 313.4 125.5H290.2C265.2 125.5 260.3 137.4 260.3 154.9V193.5H315.4C320.7 193.5 324.7 198.1 324.1 203.3L318.6 249.4C318.1 253.8 314.3 257.1 309.9 257.1H260.5L260.2 400.1H345.9C375.6 400.1 399.8 375.9 399.8 346.2V53.9C400 24.2 375.8 0 346.1 0Z" fill="#FFFF00"/>
	</g>
	<defs>
		<clipPath id="facebook">
			<rect width="400" height="400" fill="white"/>
		</clipPath>
	</defs>
</svg>
