<?xml version="1.0" encoding="utf-8"?>
<!-- Generator: Adobe Illustrator 22.0.1, SVG Export Plug-In . SVG Version: 6.00 Build 0)  -->
<svg version="1.1" id="Layer_1" xmlns="http://www.w3.org/2000/svg" xmlns:xlink="http://www.w3.org/1999/xlink" x="0px" y="0px"
	 viewBox="0 0 400 400" style="enable-background:new 0 0 400 400;" xml:space="preserve">
<style type="text/css">
	.st0{fill:#FFFF00;}
</style>
<g>
	<path class="st0" d="M280.8,0H119.2C53.5,0,0,53.5,0,119.2v161.7C0,346.5,53.5,400,119.2,400h161.7c65.7,0,119.2-53.5,119.2-119.2
		V119.2C400,53.5,346.5,0,280.8,0z M359.8,280.8c0,43.6-35.3,78.9-78.9,78.9H119.2c-43.6,0-78.9-35.3-78.9-78.9V119.2
		c0-43.6,35.3-78.9,78.9-78.9h161.7c43.6,0,78.9,35.3,78.9,78.9V280.8L359.8,280.8z"/>
	<path class="st0" d="M200,96.5C143,96.5,96.5,143,96.5,200S143,303.5,200,303.5S303.5,257,303.5,200S257,96.5,200,96.5z M200,263.2
		c-34.9,0-63.2-28.3-63.2-63.2s28.3-63.2,63.2-63.2c34.9,0,63.2,28.3,63.2,63.2C263.2,234.9,234.9,263.2,200,263.2z"/>
	<circle class="st0" cx="303.7" cy="97.3" r="24.8"/>
</g>
</svg>
