<?xml version="1.0" encoding="utf-8"?>
<!-- Generator: Adobe Illustrator 21.1.0, SVG Export Plug-In . SVG Version: 6.00 Build 0)  -->
<svg version="1.1" id="Layer_1" xmlns="http://www.w3.org/2000/svg" xmlns:xlink="http://www.w3.org/1999/xlink" x="0px" y="0px"
	 viewBox="0 0 400 400" style="enable-background:new 0 0 400 400;" xml:space="preserve">
<style type="text/css">
	.st0{fill:#FFFF00;}
</style>
<path class="st0" d="M393.6,72.3c-8.9,3.9-18.1,7-27.6,9.3c10.4-9.9,18.2-22.3,22.7-36.2l0,0c1.3-4-3-7.4-6.6-5.3l0,0
	c-13.2,7.8-27.3,13.7-42.1,17.5c-0.9,0.2-1.8,0.3-2.6,0.3c-2.7,0-5.4-1-7.4-2.8c-15.8-13.8-36-21.6-57.1-21.6
	c-9.1,0-18.3,1.5-27.3,4.2c-28,8.7-49.5,31.7-56.3,60.2c-2.5,10.6-3.2,21.4-2,31.8c0.1,1.2-0.4,2-0.8,2.4c-0.6,0.7-1.5,1.1-2.3,1.1
	c-0.1,0-0.2,0-0.3,0c-61.2-5.7-116.4-35.2-155.5-83l0,0c-2-2.4-5.9-2.1-7.4,0.6l0,0C13.3,63.9,9.2,78.9,9.2,94.2
	c0,23.4,9.4,45.4,25.7,61.4c-6.8-1.7-13.5-4.2-19.7-7.6l0,0c-3-1.7-6.6,0.5-6.7,3.9l0,0c-0.4,34.7,19.9,65.6,50.3,79.6
	c-0.6,0-1.3,0-1.9,0c-4.9,0-9.8-0.5-14.5-1.4l0,0c-3.3-0.7-6.1,2.5-5.2,5.9l0,0c9.9,30.9,36.5,53.6,68.3,58.8
	c-26.4,17.7-57.2,27.1-89.1,27.1H6.5c-3.1,0-5.7,2-6.4,5s0.7,6,3.3,7.5c36.1,21,77.1,32.1,119,32.1c36.6,0,70.7-7.2,101.6-21.6
	c28.3-13.1,53.3-31.9,74.4-55.7c19.6-22.2,34.9-47.9,45.5-76.3c10.1-27,15.5-55.9,15.5-83.5v-1.3c0-4.4,2-8.6,5.5-11.4
	c13.3-10.7,24.8-23.4,34.3-37.6l0,0C401.7,75.2,397.8,70.5,393.6,72.3L393.6,72.3z"/>
</svg>
