<?xml version="1.0" encoding="utf-8"?>
<!-- Generator: Adobe Illustrator 21.1.0, SVG Export Plug-In . SVG Version: 6.00 Build 0)  -->
<svg version="1.1" id="Layer_1" xmlns="http://www.w3.org/2000/svg" xmlns:xlink="http://www.w3.org/1999/xlink" x="0px" y="0px"
	 viewBox="0 0 400 400" style="enable-background:new 0 0 400 400;" xml:space="preserve">
<style type="text/css">
	.st0{fill:#FFFF00;}
</style>
<g>
	<path class="st0" d="M190.3,0.2C84.7,5.3,1.4,93.3,1.7,199c0.1,32.2,7.8,62.7,21.6,89.4l-21,102.3c-1.1,5.5,3.8,10.3,9.4,9.1
		l100.2-23.7c25.7,12.8,54.6,20.2,85.2,20.7c108,1.6,198-84.1,201.4-192C401.9,89.1,306.4-5.2,190.3,0.2z M309.9,308.2
		c-29.4,29.4-68.3,45.5-109.8,45.5c-24.3,0-47.5-5.5-69.2-16.2l-14-7l-61.4,14.5l12.9-62.7l-6.9-13.5
		c-11.2-21.9-16.8-45.6-16.8-70.5c0-41.5,16.2-80.4,45.5-109.8c29-29.1,68.7-45.5,109.8-45.5c41.5,0,80.4,16.2,109.8,45.5
		c29.4,29.4,45.5,68.3,45.5,109.8C355.3,239.6,338.9,279.2,309.9,308.2z"/>
	<path class="st0" d="M296.3,241.5l-38.5-11c-5.1-1.4-10.5,0-14.2,3.7l-9.4,9.6c-3.9,4-9.9,5.4-15.2,3.3
		c-18.2-7.4-56.4-41.3-66.2-58.3c-2.8-4.9-2.4-11,1.1-15.5l8.2-10.6c3.3-4.1,3.9-9.8,1.7-14.5l-16.2-36.5c-3.8-8.8-15-11.3-22.4-5.2
		c-10.7,9.1-23.4,22.9-25,38.2c-2.8,26.9,8.8,60.8,52.5,101.6c50.4,47.1,90.9,53.3,117.1,47c14.9-3.6,26.9-18.1,34.3-29.9
		C309.6,254.8,305.5,244.1,296.3,241.5z"/>
</g>
</svg>
